<svg width="355" height="146" viewBox="0 0 355 146" fill="none" xmlns="http://www.w3.org/2000/svg">
<path d="M81.985 78.221C82.1294 81.5882 83.4809 92.0441 94.6046 94.4039C94.8842 94.4645 95.1685 94.4738 95.4528 94.4458C97.7549 94.2126 107.811 92.3845 108.893 78.3096C108.949 77.5868 108.632 76.8872 108.044 76.4628C104.876 74.1823 93.9709 67.6579 82.7912 76.5001C82.2646 76.9152 81.957 77.5495 81.9897 78.221H81.985Z" fill="#04748D"/>
<path d="M147.879 49.2971C147.879 49.2971 147.879 49.2645 147.879 49.2458C147.879 48.9054 147.879 48.565 147.879 48.2198H147.851C147.781 46.0979 147.516 43.9853 147.027 41.9239C146.127 38.1184 145.135 35.5254 144.71 34.3455C144.552 33.9071 144.128 33.6833 143.746 33.8278L134.015 37.5588C133.596 37.7173 133.396 38.263 133.577 38.7387C137.408 48.8588 142.669 46.3824 142.669 46.3824C142.702 47.1519 142.735 47.7815 142.758 48.2898C143.811 76.752 130.623 90.5144 118.017 97.1601C111.302 100.756 103.841 106.8 96.3941 107.052C95.9188 107.066 94.2318 107.08 93.7565 107.075C87.0319 107.103 81.5003 100.924 75.2045 98.1535C61.732 92.2213 46.0227 79.2517 47.1691 48.2945C47.1971 47.7861 47.225 47.1565 47.2576 46.387C47.2576 46.387 52.5189 48.8634 56.3496 38.7433C56.5313 38.2676 56.3309 37.722 55.9115 37.5634L46.1811 33.8325C45.799 33.6879 45.3749 33.9118 45.2165 34.3502C44.7924 35.5254 43.7998 38.1231 42.9004 41.9286C42.4111 43.9899 42.1455 46.1026 42.0756 48.2198H42.0476C42.0476 48.5696 42.0476 48.9054 42.0476 49.2505C42.0476 49.2692 42.0476 49.2832 42.0476 49.3018V49.3298C42.0476 59.6784 42.4996 68.9124 43.3571 73.4641C43.921 76.4582 44.9555 79.3403 46.3955 82.0219L60.1196 107.593C60.7581 108.782 61.3639 109.99 61.9604 111.207C64.1879 115.768 73.4942 131.704 94.4881 131.471C94.8143 131.471 95.1312 131.447 95.4528 131.438V131.471C116.447 131.708 125.748 115.768 127.981 111.207C128.572 109.994 129.183 108.787 129.821 107.593L143.545 82.0219C144.985 79.3403 146.02 76.4535 146.584 73.4641C147.441 68.9124 147.893 59.6784 147.893 49.3298V49.3018L147.879 49.2971Z" fill="#04748D"/>
<path d="M105.439 7.20775C107.131 8.00523 106.441 10.463 104.647 10.0153C86.9107 5.54749 57.1324 3.95719 37.2383 34.1916C7.30621 79.6808 53.5767 120.618 55.5293 121.528C55.5293 121.528 -2.63852 92.8089 22.7639 31.8877C25.2058 26.0349 28.8547 20.8489 33.5474 16.661C45.1978 6.26103 70.3672 -9.27823 105.435 7.20775H105.439Z" fill="#333333"/>
<path d="M25.2617 10.0245C8.29879 25.5312 -16.852 59.739 16.0719 108.567C22.1161 117.531 29.9125 125.277 38.9951 131.191C60.3991 145.13 102.331 161.845 141.5 115.88C141.5 115.88 101.408 158.077 49.5037 125.734C39.8386 119.713 31.3944 111.795 24.6978 102.598C-3.38883 64.0062 12.8984 29.2947 26.9067 11.5496C27.6943 10.5469 26.203 9.16643 25.2617 10.0245Z" fill="#333333"/>
<path d="M166.464 113.935L166.655 113.777C167.876 112.877 169.595 113.198 170.43 114.467C176.87 124.26 192.966 128.299 205.744 128.299C222.777 128.299 236.664 119.088 236.664 106.245C236.664 91.6243 218.014 84.5915 201.387 78.2909C185.403 72.0696 167.564 64.2347 167.564 44.1158C167.564 23.9968 185.566 9.13379 208.414 9.13379C226.64 9.13379 237.065 19.9814 242.503 31.8551C243.044 33.0396 242.666 34.4434 241.581 35.1709C240.318 36.0197 238.803 35.9917 238.048 34.6766C233.244 26.3007 218.918 23.5957 208.251 23.5957C194.285 23.5957 182.336 32.8064 182.336 44.4376C182.336 57.0387 196.624 61.6464 213.415 68.1102C232.95 76.0291 251.437 85.0765 251.437 105.998C251.437 128.458 230.69 143.078 205.665 143.078C185.319 143.078 172.545 130.197 165.676 117.26C165.07 116.118 165.42 114.695 166.464 113.93V113.935Z" fill="#333333"/>
<path d="M270.026 113.935L270.217 113.777C271.438 112.877 273.158 113.198 273.992 114.467C280.432 124.26 296.528 128.299 309.306 128.299C326.339 128.299 340.226 119.088 340.226 106.245C340.226 91.6243 321.576 84.5915 304.949 78.2909C288.965 72.0696 271.126 64.2347 271.126 44.1158C271.126 23.9968 289.128 9.13379 311.977 9.13379C330.202 9.13379 340.627 19.9814 346.065 31.8551C346.606 33.0396 346.229 34.4434 345.143 35.1709C343.88 36.0197 342.365 35.9917 341.61 34.6766C336.806 26.3007 322.481 23.5957 311.813 23.5957C297.847 23.5957 285.898 32.8064 285.898 44.4376C285.898 57.0387 300.186 61.6464 316.977 68.1102C336.512 76.0291 354.999 85.0765 354.999 105.998C354.999 128.458 334.252 143.078 309.227 143.078C288.881 143.078 276.107 130.197 269.238 117.26C268.633 116.118 268.982 114.695 270.026 113.93V113.935Z" fill="#333333"/>
</svg>
